<?xml version="1.0" encoding="UTF-8"?>
<svg id="_레이어_2" xmlns="http://www.w3.org/2000/svg" version="1.1" xmlns:xlink="http://www.w3.org/1999/xlink" viewBox="0 0 83.6 75">
  <!-- Generator: Adobe Illustrator 29.7.0, SVG Export Plug-In . SVG Version: 2.1.1 Build 138)  -->
  <defs>
    <style>
      .st0 {
        fill: url(#_무제_그라디언트_2);
      }
    </style>
    <linearGradient id="_무제_그라디언트_2" data-name="무제 그라디언트 2" x1="31.4" y1="86.2" x2="48.6" y2="157.6" gradientTransform="translate(0 -85)" gradientUnits="userSpaceOnUse">
      <stop offset="0" stop-color="#ffbf05"/>
      <stop offset=".2" stop-color="#ffa105"/>
      <stop offset=".5" stop-color="#ff7a05"/>
      <stop offset=".8" stop-color="#ff4e05"/>
      <stop offset="1" stop-color="#ff2205"/>
    </linearGradient>
  </defs>
  <g id="_레이어_1-2">
    <path class="st0" d="M83.4,24.1c-.8-1.7-4.2-1.9-9.4-1-3.4.6-7.6,1.8-12.3,3.3.4.2.7.5,1,.8.2.2.4.4.5.6.3.5.5,1,.6,1.5,0,.3,0,.6,0,.9,0,.2,0,.5-.1.7,0,0,0,.1,0,.2,0,.3-.2.6-.4.9-.2.3-.4.5-.6.8-.1.1-.3.2-.4.3-.4.3-.9.6-1.5.7-.2,0-.3,0-.5,0s-.3,0-.5,0c-.5,0-.9,0-1.3-.2-1.5-.6-2.6-2-2.6-3.8s.1-1.1.3-1.6c0,0,0,0,0-.1-.1,0-.3,0-.4,0-2.5,0-4.5-2.3-3.9-4.9.3-1.4,1.4-2.6,2.8-2.9,1.9-.5,3.7.4,4.5,1.8.2-.1.4-.3.6-.4,1.2-.7,2.5-1.5,3.7-2.2s2.5-1.4,3.8-2c1-.5,1.9-.9,2.9-1.3C63.1,5.7,50.5-1,36.4.1,14.7,1.8-1.1,22,2.4,43.4c0,.1,0,.2,0,.3,0,0,.1.1.2.2,0,0,.1.1.2.2,0,0,0,0,0,0,0,0,0,0,.2,0,0,0,.2,0,.3,0s.1,0,.2,0h0c0,0,.2,0,.3,0h0c.2,0,.3-.1.3-.1,0,0,0,0,.1,0,0,0,0,0,.2,0l20.9-8.1c-3.1-4.2,1.3-10.2,6.4-8.1l.4.2c1.7.7,3.5.9,5.2.4.5-.1,1-.2,1.5-.2,3.1,0,5.3,2.6,5.5,5.3,0,1.3-.2,2.5-1.1,3.7-.3.4-.6.7-1,1h0c-.7.5-1.2,1.2-1.7,1.9-.5.7-.8,1.5-1,2.3,0,0,0,.2,0,.3-1.6,5.7-9.8,5.1-10.6-.8,0-.2,0-.4,0-.5-1.7.9-3.4,1.9-5,2.8-1.1.6-2.1,1.2-3.2,1.9s-2,1.2-3,1.8-1.9,1.2-2.8,1.8c-.9.6-1.8,1.2-2.6,1.8s-1.6,1.2-2.4,1.7c-1.1.8-2.2,1.7-3.1,2.5-4.8,4-7.2,7.2-6.3,9.1,1,2.1,6,1.9,13.3.1,6.7,6.4,15.9,10.4,25.9,10.4,20.7,0,37.5-16.8,37.5-37.5s0-2.7-.2-4c5.1-4.1,7.6-7.5,6.7-9.4,0,0,0,0,0,0Z"/>
  </g>
</svg>