<?xml version="1.0" encoding="UTF-8"?>
<svg id="_레이어_1" data-name="레이어 1" xmlns="http://www.w3.org/2000/svg" viewBox="0 0 74.12 76.56">
  <defs>
    <style>
      .cls-1 {
        fill: #f7461e;
      }

      .cls-2 {
        fill: #f7931e;
      }
    </style>
  </defs>
  <path class="cls-2" d="M13.37,2.43c-.94.41-3.98,1.83-6.63,4.93-1.96,2.29-2.95,4.63-3.64,6.24-.75,1.76-1.14,3.19-1.31,3.88-.2.78-.49,1.98-.62,3.49-.16,1.91.03,3.36.15,4.26,1.14,8.71.73,8.52,1.5,11.24.57,2.04,1.2,3.46,2.44,6.31,1.79,4.12,2.84,5.58,3.28,6.15.08.1.93,1.18,2.15,2.59.04.05.38.45.5.57,1.28,1.3,3.05,2,4.82,2.45,3.47.88,7.09.95,10.67,1.02,5.75.1,11.51.2,17.26.44,1.63.07,3.28.14,4.89-.12,1.22-.2,2.41-.6,3.58-.99,2.62-.88,5.23-1.75,7.85-2.63,1.32-.44,2.66-.89,3.82-1.68,1.3-.89,2.3-2.15,3.11-3.5,1.99-3.32,2.92-7.15,3.7-10.94.97-4.71,1.76-9.51,1.46-14.31-.3-4.8-1.77-9.65-4.89-13.31-4.87-5.73-11.62-6.65-13.12-6.82-1.16-.13-3.13-.33-5.59.23-5.2,1.18-8.31,4.78-9.44,6.25-.14.18-.37.43-.72.65-.25.16-.44.29-.67.29-.45,0-.79-.51-.91-.69-.57-.79-1.53-.68-2.84-1.58-4.2-2.86-5.83-3.81-7.43-4.62-.2-.1-.32-.16-.45-.22-5.59-2.67-12,.03-12.92.43Z"/>
  <path class="cls-1" d="M11.03,34.82c-3.34,5.02-4.16,11.6-2.06,16.55,1.12,2.63,3.23,5.21,5.32,7.75,1.37,1.67,2.5,2.84,3.66,4.04,3.34,3.47,5.01,5.2,7.64,6.87,1.5.95,3.58,2.24,6.53,2.93,3.89.91,7.08.26,9.05-.16,0,0,12.75-2.93,19.32-14.16.33-.57.64-1.28,2.05-3.96.22-.42.57-1.07.87-1.99.32-.98.42-1.75.45-2.01.39-2.83,2.03-4.64,1.76-6.99-.28-2.45-1.22-4.78-2.15-7.07-1.01-2.48-2.11-5.08-4.27-6.67-1.54-1.13-3.45-1.61-5.3-2.04-3.06-.71-6.33-1.35-9.27-.24-1.92.72-3.55,2.15-5.53,2.69-5.54,1.52-9.91-3.89-15.25-3.7-7.34.26-12.35,7.44-12.81,8.14Z"/>
  <g>
    <path d="M68.52,7.92c-2.24-2.69-5.03-4.48-8.17-5.71-4.36-1.68-8.95-1.68-13.31,0-3.47,1.34-6.38,3.58-8.95,6.27-.34-.45-.67-.78-1.01-1.12-2.46-2.69-5.48-4.7-8.95-6.04-4.59-1.68-9.51-1.79-14.1-.11-3.02,1.12-5.71,2.8-7.83,5.26C1.95,10.94.27,17.2.05,23.25c-.34,6.83,1.12,13.99,3.36,20.36.25.67.5,1.34.78,2.01.48,1.23,1.02,2.46,1.6,3.67,1.78,3.74,3.92,7.35,6.41,10.7,1.52,2.38,3.39,4.53,5.53,6.39.44.44.89.87,1.34,1.28,4.7,4.25,10.41,8.39,16.89,8.84,6.82.56,12.87-3.02,17.79-7.27.83-.72,1.63-1.46,2.42-2.25,1.39-1.18,2.67-2.49,3.84-3.94.93-1.11,1.76-2.33,2.47-3.62,3.24-4.63,5.89-9.74,7.83-14.81.66-1.75,1.25-3.55,1.76-5.39.5-1.78.92-3.58,1.25-5.41.55-3.03.84-6.09.79-9.11,0-6.04-1.57-12.2-5.59-16.78ZM6.1,43.36c-.41-1.01-.75-1.91-1.02-2.66h0c-.57-1.57-1.04-3.06-1.42-4.44-1.13-4.14-1.49-7.32-1.61-8.53-.21-2.14-.27-3.48-.27-4.25,0,0,0-.92.05-1.81.54-9.8,5.37-14.88,5.37-14.88,2.59-2.72,5.47-3.86,6.49-4.25,3.8-1.45,8.06-1.34,11.97.11,1.25.46,4.77,1.72,7.72,5.15,3.37,3.92,3.93,8.22,4.31,11.18.56,4.36-.05,8.1-.79,10.78-3.11-3.01-7.05-4.85-11.41-5.02-3.11-.08-6.14.75-8.75,2.27-2.78,1.6-5.06,3.95-6.65,6.65-2.25,3.99-2.96,8.5-2.55,12.95-.56-1.18-1.03-2.27-1.43-3.25ZM62.22,49.64c-3.2,5.95-7.32,11.35-11.93,15.34-2.24,1.89-4.36,3.36-6.39,4.42-.46.25-.92.47-1.37.66-2.65,1.17-5.18,1.63-7.68,1.4-4.92-.34-9.62-3.13-14.99-8.06-5.16-4.74-8.64-9.82-10.98-14.18-.88-5.25,0-9.8,2.06-13.29,1.43-2.44,3.36-4.38,5.64-5.72,2.27-1.35,4.89-2.02,7.5-1.94,3.87.08,7.82,1.85,11.11,5.64-2.77,4.04-3.7,9.52-1.26,16.08-1.01.17-2.1.17-3.11,0-1.52-.25-1.6.59,0,.84,1.18.16,2.27.16,3.36-.08,1.08-.22,2.04-.63,2.99-1.16.16-.09.31-.18.46-.28.98-.68.68-1.28-.04-.93-.09.04-.19.1-.29.17-.84.59-1.69.92-2.61,1.18-2.86-7.41-.92-13.47,2.86-17.42,1.02-1.03,2.19-1.91,3.45-2.62.36-.2.73-.39,1.1-.56.78-.37,1.6-.65,2.43-.87,2.61-.76,5.3-.84,7.83-.17,4.8,1.27,8.92,5.3,10.02,12.72.38,2.86.34,5.85-.15,8.81ZM69.05,29.59c-.16,1.09-.34,2.19-.58,3.29-.53,2.59-1.28,5.2-2.24,7.78-.04-.4-.1-.79-.16-1.19-1.01-6.9-4.71-12.96-11.7-14.81-3.03-.84-6.23-.68-9.17.16-1.12.31-2.21.74-3.24,1.26-.36.18-.7.37-1.04.57-.4.23-.78.48-1.16.75.03-.19.06-.38.09-.57.32-2.37.49-5.88-.45-9.96-.54-2.34-1.33-4.29-2.08-5.83,2.91-3.8,6.15-6.27,9.51-7.61,3.69-1.34,7.5-1.34,10.96,0,2.8,1.12,5.15,2.8,6.94,4.81,3.24,3.8,4.7,8.95,4.81,14.77,0,2.13-.16,4.33-.48,6.57Z"/>
    <path d="M53.71,14.62c-.11-1.34.11-2.8.56-4.25.56-1.9-.45-2.13-1.12-.22-.45,1.57-.67,3.02-.56,4.59,0,1.57.45,3.24,1.23,4.81.67,1.57,1.68,1.01,1.01-.34-.67-1.57-1.12-3.02-1.12-4.59Z"/>
    <path d="M17.88,19.92c-.67-1.45-1.01-3.02-1.12-4.48-.11-1.45.11-2.9.56-4.36.67-1.9-.45-2.13-1.01-.11-.45,1.45-.67,3.01-.67,4.47.11,1.68.45,3.24,1.23,4.81.67,1.57,1.68,1.12,1.01-.34Z"/>
  </g>
</svg>