<?xml version="1.0" encoding="utf-8"?>
<!-- Generator: Adobe Illustrator 23.0.1, SVG Export Plug-In . SVG Version: 6.00 Build 0)  -->
<svg version="1.1" id="Layer_1" xmlns="http://www.w3.org/2000/svg" xmlns:xlink="http://www.w3.org/1999/xlink" x="0px" y="0px"
	 viewBox="0 0 1000 1000" style="enable-background:new 0 0 1000 1000;" xml:space="preserve">
<style type="text/css">
	.st0{fill-rule:evenodd;clip-rule:evenodd;fill:#010101;}
	.st1{fill-rule:evenodd;clip-rule:evenodd;fill:#F89921;}
	.st2{fill-rule:evenodd;clip-rule:evenodd;fill:#1A1A1A;}
	.st3{fill-rule:evenodd;clip-rule:evenodd;fill:#FFFFFF;}
	.st4{fill-rule:evenodd;clip-rule:evenodd;fill:#D0D2D3;}
</style>
<g>
	<path class="st2" d="M60.8,568.7V412.1h50.8c12.6-0.5,25.2,0.3,37.6,2.3c21.4,5.7,31.8,24.6,31.8,46c0,23.6-13.3,42.4-36.2,47.3
		c-10.5,1.7-21.1,2.4-31.6,2H92.6v59H60.8z M92.6,438.8V483h17.3c8.4,0.5,16.8-0.4,24.9-2.5c8.2-2.9,13.6-10.9,13.2-19.6
		c0.4-10.4-7-19.5-17.2-21.1c-7.5-0.9-15.1-1.2-22.7-1H92.6z"/>
	<path class="st2" d="M187.2,510.3c0.1-10.1,2.6-20,7.4-28.9c4.7-9.1,12-16.5,20.9-21.4c9.3-5,19.6-7.5,30.2-7.4
		c15.8-0.6,31.1,5.5,42.2,16.7c11,11.3,17,26.5,16.5,42.3c0.5,15.9-5.5,31.3-16.6,42.7c-11,11.2-26.2,17.4-41.9,16.9
		c-10.3,0-20.5-2.4-29.7-7.1c-9.2-4.4-16.7-11.7-21.5-20.7C189.4,533.3,186.8,521.8,187.2,510.3L187.2,510.3z M217.9,511.9
		c-0.6,9.3,2.2,18.5,7.9,25.9c4.9,5.8,12.2,9.1,19.8,9c7.6,0.1,14.8-3.2,19.7-9c5.8-7.4,8.6-16.7,7.9-26c0.6-9.2-2.2-18.4-7.9-25.7
		c-4.9-5.8-12.1-9.1-19.7-9c-7.6-0.1-14.9,3.2-19.8,9C220.1,493.4,217.3,502.6,217.9,511.9z"/>
	<path class="st2" d="M349.2,568.7h-30V455.1h28v10.7c10.7-14.5,30.9-17.8,45.7-7.6l-9.4,26.5c-4.2-3-9.1-4.7-14.2-4.9
		c-3.9-0.1-7.7,1.1-10.7,3.5c-3.5,3.3-5.9,7.6-6.9,12.3c-2.2,12.5-3.1,25.3-2.5,38v34.9L349.2,568.7z"/>
	<path class="st2" d="M513,568.7h-30.2v-58c0.4-8-0.2-16-1.9-23.8c-2.5-7-9.3-11.6-16.7-11.2c-10-0.3-19.1,6-22.3,15.4
		c-2,8.6-2.7,17.3-2.3,26.1v51.4h-30.2V455.1h28.1v10.3c5.5-8.4,21.4-13.1,36.5-13.1c17.1,0,33.2,7.6,37.3,25.2
		c1.3,6.8,1.9,13.7,1.7,20.7L513,568.7L513,568.7z"/>
	<path class="st2" d="M564.3,376.9h356.4c10.2,0,18.5,8.3,18.5,18.5v209.3c0,10.2-8.3,18.5-18.5,18.5H564.3
		c-10.2,0-18.5-8.3-18.5-18.5V395.4C545.9,385.2,554.1,376.9,564.3,376.9z"/>
	<path class="st3" d="M809.1,568.7V419.6h28.9l-1.6,47.6c9.3-6.3,20.3-9.5,31.5-9.3c12,0.2,23.5,4.8,32.4,12.9
		c9.8,9.6,14.8,24.6,14.7,42.5c0.3,11.4-2,22.8-6.7,33.2c-7.5,14.8-22.5,24.3-39.1,24.6c-12,0.4-23.8-3.5-33.2-11v8.3L809.1,568.7z
		 M837.6,512.9c0,22,9.2,35.1,24.6,35.1c16.9,0,22.9-16.2,22.9-32.7c0-16.5-4.4-34.8-24-34.8c-17.1,0-23.7,15.3-23.7,32.4H837.6z"/>
	<path class="st3" d="M677.2,568.7h-28.6v-55.8c0.4-7.7-0.2-15.4-1.8-23c-2.5-6.5-8.9-10.5-15.8-9.7c-9.7-0.5-18.5,5.7-21.2,15.1
		c-1.9,8.3-2.6,16.7-2.2,25.2v48.3h-28.7V419.4h28.9v48.3c9.3-6.8,20.5-10.2,32-9.7c17.1,0,32.1,8.1,36,24.9
		c1.2,6.5,1.7,13.1,1.5,19.7V568.7z"/>
	<path class="st3" d="M693.6,460.5h28.8v55.4c-0.4,7.7,0.2,15.4,1.8,23c2.4,6.7,8.9,10.9,15.9,10.3c9.7,0.4,18.4-5.7,21.3-15
		c1.6-8.4,2.2-16.9,1.8-25.5v-47.9h28.9V569h-26.9v-11.6c-8.8,9.4-21.1,14.5-33.9,14.2c-17.5,0-31.9-7.8-35.9-24.6
		c-1.3-6.5-1.9-13-1.7-19.6v-66.8H693.6z"/>
</g>
</svg>
