<?xml version="1.0" encoding="UTF-8"?>
<svg id="_레이어_1" data-name="레이어 1" xmlns="http://www.w3.org/2000/svg" viewBox="0 0 760 549.53">
  <defs>
    <style>
      .cls-1 {
        stroke-miterlimit: 10;
      }

      .cls-1, .cls-2 {
        fill: none;
        stroke: #ff7a05;
        stroke-width: 20px;
      }

      .cls-2 {
        stroke-linecap: round;
        stroke-linejoin: round;
      }
    </style>
  </defs>
  <path class="cls-2" d="M742.8,23.08c-5.4-7.7-14.33-13.08-26.8-13.08H44c-12.46,0-21.39,5.38-26.79,13.08-4.47,5.57-7.21,12.49-7.21,19.92v67.75c0,18.64,15.11,33.75,33.75,33.75h.5c18.64,0,33.75-15.11,33.75-33.75h0c0-18.64,15.11-33.75,33.75-33.75h536.5c18.64,0,33.75,15.11,33.75,33.75h0c0,18.64,15.11,33.75,33.75,33.75h.5c18.64,0,33.75-15.11,33.75-33.75V43c0-7.43-2.73-14.35-7.2-19.92Z"/>
  <path class="cls-2" d="M750,308c0,10.25-.65,20.27-1.9,30.03-1.92,15.45-5.26,30.25-9.88,44.31-14.28,43.5-40.73,79.93-74.9,106.69-33.13,25.93-73.51,42.77-117.1,48.12-24.87,3.54-50.48,3.21-75.84-1.48-19.04-3.52-37.94-9.48-56.3-18.1-7.38-3.46-14.68-7.35-21.86-11.69-.15-.1-.31-.19-.46-.28-.87-.53-1.73-1.07-2.6-1.6-.56-.35-1.12-.7-1.68-1.05-.45-.29-.9-.59-1.35-.88-.68-.44-1.37-.88-2.05-1.33-2.48-1.63-5.68-1.62-8.16.01-.68.44-1.36.89-2.05,1.33-.45.29-.89.58-1.34.87-.56.35-1.13.7-1.69,1.05-.86.54-1.72,1.07-2.59,1.59-.15.1-.31.19-.47.29-7.18,4.34-14.48,8.23-21.86,11.69-18.77,8.81-38.11,14.85-57.57,18.33-24.94,4.47-50.1,4.73-74.56,1.25-57.46-7.06-109.36-34.07-146.41-75.58-29.41-32.96-49.45-75.05-55.47-123.54-1.26-9.76-1.91-19.78-1.91-30.03,0-16.01,12.98-29,29-29h11c7.73,0,14.73,3.13,19.8,8.2,5.06,5.07,8.2,12.07,8.2,19.8,0,68.93,42.66,127.19,102.75,152.08,13.12,5.29,26.83,9.04,40.73,11.16,8.01,1.15,16.2,1.76,24.52,1.76,12.16,0,23.07-1.07,32.92-2.91,30.38-5.66,50.73-18.57,66.64-29.7.17-.12.33-.24.49-.37,3.08-2.53,6.06-5.19,8.95-8.02,9.09-8.43,16.77-11.29,24.29-10.6.47.04.95.04,1.42,0,7.52-.69,15.21,2.17,24.29,10.6,2.9,2.83,5.89,5.49,8.96,8.02.16.13.32.25.49.37,15.91,11.13,36.26,24.04,66.63,29.7,9.85,1.84,20.76,2.91,32.92,2.91,8.33,0,16.51-.61,24.53-1.76,13.9-2.12,27.61-5.87,40.73-11.16,41.26-17.1,74.31-49.93,90.96-91.16,3.8-9.4,6.74-19.23,8.74-29.42,1.99-10.18,3.04-20.71,3.04-31.5,0-15.46,12.54-28,28-28h11c8.01,0,15.26,3.25,20.51,8.5s8.49,12.49,8.49,20.5Z"/>
  <path class="cls-1" d="M581.5,145h-135.15c-16.75,0-33.5,11-33.5,33v117c0,34.51,15.3,62.13,37.69,79.95h.01c.84.67,1.69,1.33,2.55,1.97,7.45,5.77,15.39,10.27,23.61,13.55h0c12.05,4.83,24.69,7.07,37.22,6.97,21.07.17,42.44-6.28,60.83-20.52,23.78-17.72,40.24-46.11,40.24-81.92v-117c0-22-16.75-33-33.5-33ZM548,254.55c-.09,1.12-.15,2.27-.15,3.45,0,2.67.07,5.51.15,8.47v24.79c-.62,9.4-2.36,18.39-6.64,25.34-6.08,8.33-15.78,13.26-26.9,13.39-.18,0-.35.01-.53.01s-.36-.01-.54-.01c-11.11-.13-20.82-5.06-26.89-13.39-4.29-6.95-6.03-15.94-6.65-25.34v-24.78c.09-2.96.15-5.81.15-8.48,0-1.18-.05-2.33-.15-3.45v-42.55s68.15,0,68.15,0v42.55Z"/>
  <path class="cls-1" d="M308.11,145h-135.16c-16.75,0-33.5,11-33.5,33v117c0,35.81,16.47,64.2,40.25,81.92,18.38,14.24,39.75,20.69,60.83,20.52,15.36.12,30.87-3.27,45.27-10.63h.01c5.36-2.74,10.57-6.03,15.55-9.89.31-.23.61-.46.91-.7h.01c23.29-17.76,39.33-45.88,39.33-81.22v-117c0-22-16.75-33-33.5-33ZM274.61,254.55c-.1,1.12-.16,2.27-.16,3.45,0,2.67.07,5.51.16,8.47v24.79c-.62,9.4-2.37,18.39-6.65,25.34-6.07,8.33-15.78,13.26-26.89,13.39-.18,0-.36.01-.54.01s-.36-.01-.54-.01c-11.11-.13-20.82-5.06-26.89-13.39-4.28-6.95-6.03-15.94-6.65-25.34v-24.78c.09-2.96.16-5.81.16-8.48,0-1.18-.06-2.33-.16-3.45v-42.55s68.16,0,68.16,0v42.55Z"/>
</svg>