<?xml version="1.0" encoding="UTF-8"?>
<svg id="_레이어_1" data-name="레이어 1" xmlns="http://www.w3.org/2000/svg" viewBox="0 0 116 129.06">
  <defs>
    <style>
      .cls-1 {
        fill: #f7461e;
      }

      .cls-2 {
        fill: #1eb7f7;
      }

      .cls-3 {
        fill: #f7931e;
      }
    </style>
  </defs>
  <path class="cls-2" d="M60.79.11C28.69-1.88,2.87,24.13.44,51.9c-2.21,25.27,15.73,43.32,18.65,46.17-4.39,7.42-4.85,16-.89,22.21,2.17,3.41,5.17,5.33,7.24,6.35,1.45.04,3.71-.13,5.76-1.51,1.54-1.04,2.27-2.29,3.54-4.54,2.84-5.01,3.32-8.78,5.32-9.01.51-.06,1.48.07,2.07.15.93.12,1.68.3,2.22.44.9-.21,1.81-.42,2.71-.63,6.48,1.17,18.31,2.27,31.01-2.88,30.24-12.27,36-47.99,36.33-50.29C114.81,27.72,90.89,1.98,60.79.11Z"/>
  <path class="cls-3" d="M33.62,23.94c-6.17,2.63-9.82,8.26-10.26,11.16-.04.29-.25,1.82-.63,4.06-.27,1.6-.48,2.7-.53,2.97-.89,4.91.88,12.48,1.61,15.59.25,1.08.05.09,1.69,6.04.58,2.11.89,3.25,1.72,4.71.68,1.2,1.44,2.14,1.83,2.62.44.54,1.3,1.6,2.39,2.51,1.16.97,2.61,1.89,4.82,2.45,3.47.88,7.09.95,10.67,1.02,5.75.1,11.51.2,17.26.44,1.63.07,3.28.14,4.89-.12,1.22-.2,2.41-.6,3.58-.99,2.62-.88,5.23-1.75,7.85-2.63,1.32-.44,2.66-.89,3.82-1.68,1.3-.89,2.3-2.15,3.11-3.5,1.99-3.32,2.92-7.15,3.7-10.94.97-4.71,1.76-9.51,1.46-14.31-.3-4.8-1.77-9.65-4.89-13.31,0,0-5.05-5.86-13.12-6.82-2.13-.25-3.99.05-3.99.05-.19.03-1.05.17-2.16.54-.5.16-2.06.7-3.77,1.79-2.43,1.56-3.99,3.51-4.84,4.76-.62,0-1.54-.07-2.57-.4-1.03-.33-1.64-.76-2.84-1.58-4.2-2.86-5.83-3.81-7.43-4.62-.2-.1-.32-.16-.45-.22-3.62-1.73-8.8-1.33-12.92.43Z"/>
  <path class="cls-1" d="M31.11,56.33c-3.05,4.86-3.44,11.28-1.01,16.48,1.26,2.69,3.19,5.01,5.15,7.26,3.39,3.89,6.97,7.71,11.31,10.5,4.35,2.79,9.58,4.48,14.69,3.75,8.1-1.16,14.08-7.88,19.32-14.16.97-1.16,1.99-2.44,2.05-3.96.03-.74-.17-1.51.05-2.22.21-.7.8-1.22,1.27-1.78,1.59-1.89,2.04-4.53,1.76-6.99s-1.22-4.78-2.15-7.07c-1.01-2.48-2.11-5.08-4.27-6.67-1.54-1.13-3.45-1.61-5.3-2.04-3.06-.71-6.33-1.35-9.27-.24-1.92.72-3.55,2.15-5.53,2.69-5.54,1.52-9.91-3.89-15.25-3.7-4.96.17-10.27,4.08-12.81,8.14Z"/>
  <g>
    <path d="M89.46,29.43c-2.24-2.69-5.03-4.48-8.17-5.71-4.36-1.68-8.95-1.68-13.31,0-3.47,1.34-6.38,3.58-8.95,6.27-.34-.45-.67-.78-1.01-1.12-2.46-2.69-5.48-4.7-8.95-6.04-4.59-1.68-9.51-1.79-14.1-.11-3.02,1.12-5.71,2.8-7.83,5.26-4.25,4.48-5.93,10.74-6.15,16.78-.34,6.83,1.12,13.99,3.36,20.36.25.67.5,1.34.78,2.01.48,1.23,1.02,2.46,1.6,3.67,1.78,3.74,3.92,7.35,6.41,10.7,1.52,2.38,3.39,4.53,5.53,6.39.44.44.89.87,1.34,1.28,4.7,4.25,10.41,8.39,16.89,8.84,6.82.56,12.87-3.02,17.79-7.27.83-.72,1.63-1.46,2.42-2.25,1.39-1.18,2.67-2.49,3.84-3.94.93-1.11,1.76-2.33,2.47-3.62,3.24-4.63,5.89-9.74,7.83-14.81.66-1.75,1.25-3.55,1.76-5.39.5-1.78.92-3.58,1.25-5.41.55-3.03.84-6.09.79-9.11,0-6.04-1.57-12.2-5.59-16.78ZM27.04,64.87c-.41-1.01-.75-1.91-1.02-2.66h0c-.57-1.57-1.04-3.06-1.42-4.44-1.13-4.14-1.49-7.32-1.61-8.53-.19-1.88-.35-3.65-.22-6.06.34-5.93,2.01-11.19,5.37-14.88,1.68-1.79,3.8-3.36,6.49-4.25,3.8-1.45,8.06-1.34,11.97.11,1.25.46,4.77,1.72,7.72,5.15,3.37,3.92,3.93,8.22,4.31,11.18.56,4.36-.05,8.1-.79,10.78-3.11-3.01-7.05-4.85-11.41-5.02-3.11-.08-6.14.75-8.75,2.27-2.78,1.6-5.06,3.95-6.65,6.65-2.25,3.99-2.96,8.5-2.55,12.95-.56-1.18-1.03-2.27-1.43-3.25ZM83.16,71.15c-3.2,5.95-7.32,11.35-11.93,15.34-2.24,1.89-4.36,3.36-6.39,4.42-.46.25-.92.47-1.37.66-2.65,1.17-5.18,1.63-7.68,1.4-4.92-.34-9.62-3.13-14.99-8.06-5.16-4.74-8.64-9.82-10.98-14.18-.88-5.25,0-9.8,2.06-13.29,1.43-2.44,3.36-4.38,5.64-5.72,2.27-1.35,4.89-2.02,7.5-1.94,3.87.08,7.82,1.85,11.11,5.64-2.77,4.04-3.7,9.52-1.26,16.08-1.01.17-2.1.17-3.11,0-1.52-.25-1.6.59,0,.84,1.18.16,2.27.16,3.36-.08,1.08-.22,2.04-.63,2.99-1.16.16-.09.31-.18.46-.28.98-.68.68-1.28-.04-.93-.09.04-.19.1-.29.17-.84.59-1.69.92-2.61,1.18-2.86-7.41-.92-13.47,2.86-17.42,1.02-1.03,2.19-1.91,3.45-2.62.36-.2.73-.39,1.1-.56.78-.37,1.6-.65,2.43-.87,2.61-.76,5.3-.84,7.83-.17,4.8,1.27,8.92,5.3,10.02,12.72.38,2.86.34,5.85-.15,8.81ZM89.99,51.1c-.16,1.09-.34,2.19-.58,3.29-.53,2.59-1.28,5.2-2.24,7.78-.04-.4-.1-.79-.16-1.19-1.01-6.9-4.71-12.96-11.7-14.81-3.03-.84-6.23-.68-9.17.16-1.12.31-2.21.74-3.24,1.26-.36.18-.7.37-1.04.57-.4.23-.78.48-1.16.75.03-.19.06-.38.09-.57.32-2.37.49-5.88-.45-9.96-.54-2.34-1.33-4.29-2.08-5.83,2.91-3.8,6.15-6.27,9.51-7.61,3.69-1.34,7.5-1.34,10.96,0,2.8,1.12,5.15,2.8,6.94,4.81,3.24,3.8,4.7,8.95,4.81,14.77,0,2.13-.16,4.33-.48,6.57Z"/>
    <path d="M74.65,36.13c-.11-1.34.11-2.8.56-4.25.56-1.9-.45-2.13-1.12-.22-.45,1.57-.67,3.02-.56,4.59,0,1.57.45,3.24,1.23,4.81.67,1.57,1.68,1.01,1.01-.34-.67-1.57-1.12-3.02-1.12-4.59Z"/>
    <path d="M38.82,41.43c-.67-1.45-1.01-3.02-1.12-4.48-.11-1.45.11-2.9.56-4.36.67-1.9-.45-2.13-1.01-.11-.45,1.45-.67,3.01-.67,4.47.11,1.68.45,3.24,1.23,4.81.67,1.57,1.68,1.12,1.01-.34Z"/>
  </g>
  <path d="M57.94,0C25.96,0,0,25.96,0,58.06c0,16.18,6.77,30.98,17.56,41.38-2.01,3.14-2.88,6.77-2.76,10.41,0,2.51.25,5.02.88,7.4,1.13,4.51,3.76,10.66,8.78,11.66,6.52,1.38,10.91-7.27,13.04-12.04.63-1.38,1.38-2.63,2.76-3.64,5.52,1.76,11.54,2.76,17.68,2.76,32.1,0,58.06-26.08,58.06-57.94S90.04,0,57.94,0ZM56.56,110.23c-4.14,0-8.15-.5-12.04-1.38-.88-.13-1.76-.38-2.63-.63-.25.25-.5.5-.75.63-1.38,1-2.51,2.26-3.26,3.51-.63.75-1,1.5-1.38,2.26-9.91,22.07-17.18,4.01-17.31-5.77,0-2.26.5-4.52,1.25-6.65.5-1.38,1.25-2.76,2.26-4.01-.88-.5-1.76-1.25-2.63-2.13C9.15,86.15,2.26,71.86,2.26,56.06,2.26,25.96,26.59,1.63,56.56,1.63s54.3,24.33,54.3,54.43-24.33,54.18-54.3,54.18Z"/>
</svg>